<svg version="1.1" xmlns="http://www.w3.org/2000/svg" xmlns:xlink="http://www.w3.org/1999/xlink" viewBox="0 0 172 172"><g fill="none" fill-rule="nonzero" stroke="none" stroke-width="1" stroke-linecap="butt" stroke-linejoin="miter" stroke-miterlimit="10" stroke-dasharray="" stroke-dashoffset="0" font-family="none" font-weight="none" font-size="none" text-anchor="none" style="mix-blend-mode: normal"><path d="M0,172v-172h172v172z" fill="none"></path><g fill="#000000"><path d="M86,16.125c-38.53069,0 -69.875,31.34431 -69.875,69.875c0,38.53069 31.34431,69.875 69.875,69.875c38.53069,0 69.875,-31.34431 69.875,-69.875c0,-38.53069 -31.34431,-69.875 -69.875,-69.875zM62.39031,139.20175c-13.09081,-5.82919 -23.64194,-16.35613 -29.51144,-29.4335c-2.236,-4.99606 1.98875,-10.50813 7.41481,-9.8255l21.24738,2.65794c2.21181,3.25456 5.06594,6.03075 8.36887,8.17806l3.68456,19.71281c1.19056,6.36938 -5.289,11.34931 -11.20419,8.71019zM69.875,86c0,-8.90637 7.21863,-16.125 16.125,-16.125c8.90637,0 16.125,7.21863 16.125,16.125c0,8.90637 -7.21863,16.125 -16.125,16.125c-8.90637,0 -16.125,-7.21863 -16.125,-16.125zM139.12381,109.76825c-5.8695,13.07737 -16.42331,23.60431 -29.51144,29.4335c-5.91519,2.63912 -12.39475,-2.34081 -11.2015,-8.71287l3.68456,-19.71281c3.30025,-2.14731 6.15437,-4.9235 8.36887,-8.17806l21.24738,-2.65794c5.42337,-0.67725 9.64812,4.83212 7.41213,9.82819zM137.78006,78.42663l-24.37831,-3.48569c-4.38062,-10.84406 -14.98819,-18.50344 -27.40175,-18.50344c-12.41356,0 -23.02113,7.65937 -27.40175,18.50344l-24.37831,3.48569c-3.05569,0.43537 -5.65719,-2.33544 -4.96919,-5.34544c0.67456,-2.95356 1.57756,-5.81575 2.68481,-8.58656c0.00538,0.00537 0.01075,0.01612 0.0215,0.0215c5.85069,-5.68406 10.88975,-5.23794 17.76169,-12.10987c6.87194,-6.87194 6.81281,-13.61487 12.09375,-17.46875c7.22131,-3.21963 16.125,-5.375 24.1875,-5.375c8.0625,0 16.96619,2.15537 24.1875,5.375c5.28094,3.85387 5.22181,10.59681 12.09375,17.46875c6.87194,6.87194 11.911,6.42581 17.76169,12.10987c0.01075,-0.00538 0.01613,-0.01613 0.0215,-0.0215c1.10725,2.77081 2.00756,5.633 2.68481,8.58656c0.688,3.01 -1.91081,5.78081 -4.96919,5.34544z"></path></g></g></svg>