<?xml version="1.0" encoding="utf-8"?>
<!-- Generator: Adobe Illustrator 24.3.0, SVG Export Plug-In . SVG Version: 6.00 Build 0)  -->
<svg version="1.1" id="Vrstva_1" xmlns="http://www.w3.org/2000/svg" xmlns:xlink="http://www.w3.org/1999/xlink" x="0px" y="0px"
	 viewBox="0 0 576 512" style="enable-background:new 0 0 576 512;" xml:space="preserve">
<style type="text/css">
	.st0{fill:#FFFFFF;}
</style>
<path class="st0" d="M160,256c0-70.7,57.3-128,128-128s128,57.3,128,128s-57.3,128-128,128S160,326.7,160,256z M288,336
	c44.2,0,80-35.8,80-80s-35.8-80-80-80c-0.7,0-1.3,0-2.9,0c2.2,5.1,2.9,10.5,2.9,16c0,35.3-28.7,64-64,64c-5.5,0-10.9-0.7-16-2.9
	c0,1.6,0,2.2,0,2C208,300.2,243.8,336,288,336L288,336z M95.4,112.6C142.5,68.8,207.2,32,288,32s145.5,36.8,192.6,80.6
	c46.8,43.4,78.1,94.5,92.9,131.1c3.3,7.9,3.3,16.7,0,24.6c-14.8,35.7-46.1,86.8-92.9,131.1C433.5,443.2,368.8,480,288,480
	s-145.5-36.8-192.6-80.6c-46.8-44.3-78.1-95.4-93-131.1c-3.3-7.9-3.3-16.7,0-24.6C17.3,207.1,48.6,156,95.4,112.6L95.4,112.6z
	 M288,80c-65.2,0-118.8,29.6-159.9,67.7C89.6,183.5,63,225.1,49.4,256c13.6,30,40.2,72.5,78.7,108.3C169.2,402.4,222.8,432,288,432
	s118.8-29.6,159.9-67.7c38.5-35.8,64.2-78.3,78.7-108.3c-14.5-30.9-40.2-72.5-78.7-108.3C406.8,109.6,353.2,80,288,80L288,80z"/>
</svg>
