<?xml version="1.0" encoding="utf-8"?>
<!-- Generator: Adobe Illustrator 24.3.0, SVG Export Plug-In . SVG Version: 6.00 Build 0)  -->
<svg version="1.1" id="Vrstva_1" xmlns="http://www.w3.org/2000/svg" xmlns:xlink="http://www.w3.org/1999/xlink" x="0px" y="0px"
	 viewBox="0 0 172 172" style="enable-background:new 0 0 172 172;" xml:space="preserve">
<style type="text/css">
	.st0{fill:#FFFFFF;}
</style>
<path class="st0" d="M127,81.9H90.1V45c0-2.3-1.8-4.1-4.1-4.1c-2.3,0-4.1,1.8-4.1,4.1v36.9H45c-2.3,0-4.1,1.8-4.1,4.1
	c0,2.3,1.8,4.1,4.1,4.1h36.9V127c0,2.3,1.8,4.1,4.1,4.1c2.3,0,4.1-1.8,4.1-4.1V90.1H127c2.3,0,4.1-1.8,4.1-4.1
	C131,83.7,129.2,81.9,127,81.9z"/>
<path class="st0" d="M86,0C38.5,0,0,38.5,0,86s38.5,86,86,86s86-38.5,86-86S133.5,0,86,0z M86,163.8c-42.9,0-77.8-34.9-77.8-77.8
	S43.1,8.2,86,8.2s77.8,34.9,77.8,77.8S128.9,163.8,86,163.8z"/>
</svg>
